<svg fill="none" height="57" width="49" xmlns="http://www.w3.org/2000/svg" xmlns:xlink="http://www.w3.org/1999/xlink"><linearGradient id="a"><stop offset="0" stop-color="#7f52f1"/><stop offset=".475" stop-color="#5786f1"/><stop offset="1" stop-color="#1dd4f1"/></linearGradient><linearGradient id="b" gradientUnits="userSpaceOnUse" x1="38.37" x2="-34.921" xlink:href="#a" y1="-60.843" y2="-36.593"/><linearGradient id="c" gradientUnits="userSpaceOnUse" x1="14.912" x2="18.042" xlink:href="#a" y1="31.802" y2="45.211"/><linearGradient id="d" gradientUnits="userSpaceOnUse" x1="14.912" x2="17.12" xlink:href="#a" y1="24.68" y2="36.033"/><path d="M30.346 26.22H49v22.054c-2.248 2.389-5.461 4.6-8.94 6.283C36.635 56.186 32.754 57 28.42 57c-3.854 0-7.494-.679-10.919-2.036-3.425-1.411-6.45-3.365-9.072-5.863-2.622-2.551-4.683-5.564-6.181-9.038C.749 36.589 0 32.734 0 28.5s.75-8.089 2.248-11.563c1.498-3.474 3.559-6.46 6.181-8.957a27.298 27.298 0 0 1 9.072-5.863C20.926.706 24.566 0 28.42 0c3.372 0 6.289.489 8.75 1.466 2.463.923 4.604 2.198 6.423 3.827v11.4a76.008 76.008 0 0 0-4.014-2.85c-1.391-.923-2.97-1.683-4.736-2.28-1.713-.597-3.747-.896-6.102-.896-3.21 0-6.128.787-8.75 2.362s-4.71 3.691-6.262 6.351-2.328 5.7-2.328 9.12c0 3.366.776 6.406 2.328 9.12 1.552 2.66 3.64 4.777 6.262 6.351 2.622 1.52 5.54 2.28 8.75 2.28 2.462 0 4.443-.298 5.941-.895 1.499-.597 2.676-1.249 3.532-1.955l.08-9.038h-7.947z" fill="url(#b)"/><path d="M24.338 39.102V29.096H49v10.006z" fill="url(#c)"/><path d="M24.338 30.764v-8.339H49v8.339z" fill="url(#d)"/></svg>